<svg width="63" height="71" viewBox="0 0 63 71" fill="none" xmlns="http://www.w3.org/2000/svg">
<circle cx="31.38" cy="39.6207" r="24.3448" stroke="#181818" stroke-width="2"/>
<circle cx="31.3793" cy="39.6205" r="30.3793" stroke="#181818" stroke-width="2"/>
<path d="M14.4844 10.0517L31.9844 23.931L48.8809 10.0517H37.4154H25.9499H14.4844Z" fill="white"/>
<path d="M22.3292 1L14.4844 10.0517H25.9499L22.3292 1Z" fill="white"/>
<path d="M41.0361 1H22.3292L25.9499 10.0517H37.4154L41.0361 1Z" fill="white"/>
<path d="M48.8809 10.0517L41.0361 1L37.4154 10.0517H48.8809Z" fill="white"/>
<path d="M14.4844 10.0517L31.9844 23.931L48.8809 10.0517M14.4844 10.0517L22.3292 1M14.4844 10.0517H25.9499M48.8809 10.0517L41.0361 1M48.8809 10.0517H37.4154M22.3292 1H41.0361M22.3292 1L25.9499 10.0517M41.0361 1L37.4154 10.0517M37.4154 10.0517H25.9499" stroke="#1D1D1D" stroke-width="2"/>
</svg>
