<svg width="397" height="153" viewBox="0 0 397 153" fill="none" xmlns="http://www.w3.org/2000/svg">
<path d="M91.3241 150V107.37H116.314V98.34H91.3241V2.99999H82.0841L0.394102 99.39V107.37H81.6641V150H91.3241ZM81.6641 16.86V98.34H12.3641L81.6641 16.86ZM197.994 152.52C215.214 152.52 229.284 145.38 240.414 130.89C251.544 116.4 257.004 98.13 257.004 76.5C257.004 54.87 251.544 36.81 240.414 22.32C229.284 7.82999 215.214 0.479997 197.994 0.479997C180.564 0.479997 166.494 7.82999 155.364 22.32C144.444 36.81 138.984 54.87 138.984 76.5C138.984 98.13 144.444 116.4 155.364 130.89C166.494 145.38 180.564 152.52 197.994 152.52ZM162.504 124.38C153.264 111.57 148.644 95.61 148.644 76.5C148.644 57.39 153.264 41.43 162.504 28.83C171.954 16.02 183.714 9.71999 197.994 9.71999C212.274 9.71999 224.034 16.02 233.274 28.83C242.724 41.43 247.344 57.39 247.344 76.5C247.344 95.61 242.724 111.57 233.274 124.38C224.034 136.98 212.274 143.28 197.994 143.28C183.714 143.28 171.954 136.98 162.504 124.38ZM371.256 150V107.37H396.246V98.34H371.256V2.99999H362.016L280.326 99.39V107.37H361.596V150H371.256ZM361.596 16.86V98.34H292.296L361.596 16.86Z" fill="black"/>
</svg>
