<svg width="34" height="31" viewBox="0 0 34 31" fill="none" xmlns="http://www.w3.org/2000/svg">
<path opacity="0.8" d="M9.60879 20.69C11.1688 20.69 12.3821 21.1667 13.2488 22.12C14.2021 23.0733 14.6788 24.2867 14.6788 25.76C14.6788 29.2267 12.6855 30.96 8.69879 30.96C6.09879 30.96 4.06212 30.0067 2.58879 28.1C1.11546 26.1067 0.378789 23.29 0.378789 19.65C0.378789 16.1833 1.15879 12.9767 2.71879 10.03C4.27879 6.99666 6.57546 4.00666 9.60879 1.06C9.69546 0.973328 9.82546 0.929992 9.99879 0.929992C10.2588 0.929992 10.4755 1.05999 10.6488 1.32C10.8221 1.58 10.8221 1.79666 10.6488 1.96999C6.40212 6.30333 4.27879 11.4167 4.27879 17.31C4.27879 19.7367 4.71212 21.5133 5.57879 22.64C6.35879 21.34 7.70212 20.69 9.60879 20.69ZM28.7188 20.69C30.2788 20.69 31.4921 21.1667 32.3588 22.12C33.3121 23.0733 33.7888 24.2867 33.7888 25.76C33.7888 29.2267 31.7955 30.96 27.8088 30.96C25.2088 30.96 23.1721 30.0067 21.6988 28.1C20.2255 26.1067 19.4888 23.29 19.4888 19.65C19.4888 16.1833 20.2688 12.9767 21.8288 10.03C23.3888 6.99666 25.6855 4.00666 28.7188 1.06C28.8055 0.973328 28.9355 0.929992 29.1088 0.929992C29.3688 0.929992 29.5855 1.05999 29.7588 1.32C29.9321 1.58 29.9321 1.79666 29.7588 1.96999C25.5121 6.30333 23.3888 11.4167 23.3888 17.31C23.3888 19.7367 23.8221 21.5133 24.6888 22.64C25.4688 21.34 26.8121 20.69 28.7188 20.69Z" fill="#181818"/>
</svg>
